{"title":"White House Down (2013) BDRip 720p","uid":9038658,"size":5856884296,"categoryP":"video","categoryS":"hd___movies","magnet":"?xt=urn:btih:1e455b58f64c4c4c6c54ac774fc448e37a5e965f&amp;dn=White+House+Down+%282013%29+BDRip+720p&amp;tr=udp%3A%2F%2Ftracker.openbittorrent.com%3A80&amp;tr=udp%3A%2F%2Fopen.demonii.com%3A1337&amp;tr=udp%3A%2F%2Ftracker.coppersurfer.tk%3A6969&amp;tr=udp%3A%2F%2Fexodus.desync.com%3A6969","seeders":3,"leechers":0,"uploader":"yfjfrj","files":-1,"time":1381569100,"description":"General\nUnique ID                                : 239396042363736324814743630122092519375 (0xB41A002AF755F9F88B2B22B65212DFCF)\nComplete name                            : D:moviesShturm.belogo.doma.2013.D.BDRip.720p.mkv\nFormat                                   : Matroska\nFormat version                           : Version 4 / Version 2\nFile size                                : 5.45 GiB\nDuration                                 : 2h 11mn\nOverall bit rate                         : 5 936 Kbps\nEncoded date                             : UTC 2013-10-10 17:59:13\nWriting application                      : mkvmerge v6.4.1 ('Omega Point') built on Sep 16 2013 22:05:10\nWriting library                          : libebml v1.3.0 + libmatroska v1.4.1\n\nVideo\nID                                       : 1\nFormat                                   : AVC\nFormat/Info                              : Advanced Video Codec\nFormat profile                           : &lt;a class=&quot;__cf_email__&quot; href=&quot;/cdn-cgi/l/email-protection&quot; data-cfemail=&quot;b2fadbd5daf2fe869c83&quot;&gt;[email&amp;#160;protected]&lt;/a&gt;&lt;script cf-hash='f9e31' type=&quot;text/javascript&quot;&gt;\n/* &lt;![CDATA[ */!function(){try{var t=&quot;currentScript&quot;in document?document.currentScript:function(){for(var t=document.getElementsByTagName(&quot;script&quot;),e=t.length;e--;)if(t[e].getAttribute(&quot;cf-hash&quot;))return t[e]}();if(t&amp;&amp;t.previousSibling){var e,r,n,i,c=t.previousSibling,a=c.getAttribute(&quot;data-cfemail&quot;);if(a){for(e=&quot;&quot;,r=parseInt(a.substr(0,2),16),n=2;a.length-n;n+=2)i=parseInt(a.substr(n,2),16)^r,e+=String.fromCharCode(i);e=document.createTextNode(e),c.parentNode.replaceChild(e,c)}}}catch(u){}}();/* ]]&gt; */&lt;/script&gt;\nFormat settings, CABAC                   : Yes\nFormat settings, ReFrames                : 5 frames\nCodec ID                                 : V_MPEG4/ISO/AVC\nDuration                                 : 2h 11mn\nBit rate                                 : 5 178 Kbps\nWidth                                    : 1 280 pixels\nHeight                                   : 534 pixels\nDisplay aspect ratio                     : 2.40:1\nFrame rate mode                          : Constant\nFrame rate                               : 23.976 fps\nColor space                              : YUV\nChroma subsampling                       : 4:2:0\nBit depth                                : 8 bits\nScan type                                : Progressive\nBits/(Pixel*Frame)                       : 0.316\nStream size                              : 4.76 GiB (87%)\nLanguage                                 : English\nDefault                                  : Yes\nForced                                   : No\n\nAudio\nID                                       : 2\nFormat                                   : AC-3\nFormat/Info                              : Audio Coding 3\nMode extension                           : CM (complete main)\nFormat settings, Endianness              : Big\nCodec ID                                 : A_AC3\nDuration                                 : 2h 11mn\nBit rate mode                            : Constant\nBit rate                                 : 640 Kbps\nChannel(s)                               : 6 channels\nChannel positions                        : Front: L C R, Side: L R, LFE\nSampling rate                            : 48.0 KHz\nBit depth                                : 16 bits\nCompression mode                         : Lossy\nStream size                              : 602 MiB (11%)\nLanguage                                 : Russian\nDefault                                  : Yes\nForced                                   : No\n\nText\nID                                       : 3\nFormat                                   : UTF-8\nCodec ID                                 : S_TEXT/UTF8\nCodec ID/Info                            : UTF-8 Plain Text\nLanguage                                 : Russian\nDefault                                  : No\nForced                                   : No\n\nMenu\n00:00:00.000                             : en:00:00:00.000\n00:06:39.774                             : en:00:06:39.774\n00:15:18.835                             : en:00:15:18.835\n00:21:37.838                             : en:00:21:37.838\n00:30:10.809                             : en:00:30:10.809\n00:37:47.348                             : en:00:37:47.348\n00:45:51.207                             : en:00:45:51.207\n00:51:12.278                             : en:00:51:12.278\n00:59:55.133                             : en:00:59:55.133\n01:07:08.942                             : en:01:07:08.942\n01:14:42.853                             : en:01:14:42.853\n01:24:13.590                             : en:01:24:13.590\n01:29:53.805                             : en:01:29:53.805\n01:37:27.717                             : en:01:37:27.717\n01:44:36.562                             : en:01:44:36.562\n01:54:17.851                             : en:01:54:17.851\n","torrent":{"xt":"urn:btih:1e455b58f64c4c4c6c54ac774fc448e37a5e965f","amp;dn":"White+House+Down+%282013%29+BDRip+720p","amp;tr":["udp%3A%2F%2Ftracker.openbittorrent.com%3A80","udp%3A%2F%2Fopen.demonii.com%3A1337","udp%3A%2F%2Ftracker.coppersurfer.tk%3A6969","udp%3A%2F%2Fexodus.desync.com%3A6969"],"infoHash":"1e455b58f64c4c4c6c54ac774fc448e37a5e965f","infoHashBuffer":{"type":"Buffer","data":[30,69,91,88,246,76,76,76,108,84,172,119,79,196,72,227,122,94,150,95]},"announce":[],"urlList":[]}}